<svg width="512" height="512" viewBox="0 0 512 512" fill="none" xmlns="http://www.w3.org/2000/svg">
<path d="M314.708 329L296.333 245.292L332.062 209.562C347.375 194.25 352.479 173.833 347.375 163.625C337.167 158.521 316.75 163.625 301.437 178.937L265.708 214.667L182 196.292C176.896 195.271 172.813 197.312 170.771 201.396L167.708 206.5C165.667 211.604 166.688 216.708 170.771 219.771L224.875 255.5L204.458 286.125H173.833L163.625 296.333L194.25 316.75L214.667 347.375L224.875 337.167V306.542L255.5 286.125L291.229 340.229C294.292 344.312 299.396 345.333 304.5 343.292L309.604 341.25C313.687 338.187 315.729 334.104 314.708 329Z" fill="black" stroke="black" stroke-width="2" stroke-linecap="round" stroke-linejoin="round"/>
</svg>
